# AST/ASF file generated using VICON BodyLanguage
# -----------------------------------------------
:version 1.10
:name VICON
:units
  mass 1.0
  length 0.45
  angle deg
:documentation
   .ast/.asf automatically generated from VICON data using
   VICON BodyBuilder and BodyLanguage model FoxedUp or BRILLIANT.MOD
:root
   order TX TY TZ RX RY RZ
   axis XYZ
   position 0 0 0  
   orientation 0 0 0 
:bonedata
  begin
     id 1 
     name lhipjoint
     direction 0.561145 -0.797705 0.220866 
     length 2.46425 
     axis 0 0 0  XYZ
  end
  begin
     id 2 
     name lfemur
     direction 0.34202 -0.939693 0  
     length 7.95556  
     axis 0 0 20  XYZ
    dof rx ry rz
    limits (-160.0 20.0)
           (-70.0 70.0)
           (-60.0 70.0)
  end
  begin
     id 3 
     name ltibia
     direction 0.34202 -0.939693 0   
     length 7.9832   
     axis 0 0 20   XYZ
    dof rx
    limits (-10.0 170.0)
  end
  begin
     id 4 
     name lfoot
     direction 0.0723927 -0.198897 0.977343   
     length 2.23085   
     axis -90 7.62852e-016 20   XYZ
    dof rx rz
    limits (-45.0 90.0)
           (-70.0 20.0)
  end
  begin
     id 5 
     name ltoes
     direction 1.53826e-011 -4.21988e-011 1   
     length 1.12127   
     axis -90 7.62852e-016 20   XYZ
    dof rx
    limits (-90.0 20.0)
  end
  begin
     id 6 
     name rhipjoint
     direction -0.610499 -0.763299 0.21134   
     length 2.57533  
     axis 0 0 0  XYZ 
  end
  begin
     id 7 
     name rfemur
     direction -0.34202 -0.939693 0   
     length 8.65257   
     axis 0 0 -20   XYZ
    dof rx ry rz
    limits (-160.0 20.0)
           (-70.0 70.0)
           (-70.0 60.0)
  end
  begin
     id 8 
     name rtibia
     direction -0.342021 -0.939692 0   
     length 7.37807   
     axis 0 0 -20   XYZ
    dof rx
    limits (-10.0 170.0)
 end
 begin
     id 9 
     name rfoot
     direction -0.0239304 -0.0543852 0.998233   
     length 1.87018  
     axis -90 -7.62852e-016 -20   XYZ
    dof rx rz
    limits (-45.0 90.0)
           (-20.0 70.0)
  end
  begin
     id 10 
     name rtoes
     direction -1.53584e-011 -4.2242e-011 1   
     length 0.951568   
     axis -90 -7.62852e-016 -20   XYZ
    dof rx
    limits (-90.0 20.0)
  end
  begin
     id 11 
     name lowerback
     direction 0.00322089 0.999033 0.0438587   
     length 2.07568   
     axis 0 0 0   XYZ
    dof rx ry rz
    limits (-20.0 45.0)
           (-30.0 30.0)
           (-30.0 30.0)
  end
  begin
     id 12 
     name upperback
     direction -0.00321932 0.999732 -0.0229403   
     length 2.06253   
     axis 0 0 0   XYZ
    dof rx ry rz
    limits (-20.0 45.0)
           (-30.0 30.0)
           (-30.0 30.0)
  end
  begin
     id 13 
     name thorax
     direction -0.00537537 0.998955 -0.0453918   
     length 2.06975   
     axis 0 0 0   XYZ
    dof rx ry rz
    limits (-20.0 45.0)
           (-30.0 30.0)
           (-30.0 30.0)
  end
  begin
     id 14 
     name lowerneck
     direction -0.00013604 0.994111 0.108363   
     length 1.50836   
     axis 0 0 0   XYZ
    dof rx ry rz
    limits (-20.0 45.0)
           (-30.0 30.0)
           (-30.0 30.0)
  end
  begin
     id 15 
     name upperneck
     direction 0.0397262 0.983859 -0.174482   
     length 1.53037   
     axis 0 0 0   XYZ
    dof rx ry rz
    limits (-20.0 45.0)
           (-30.0 30.0)
           (-30.0 30.0)
  end
  begin
     id 16
     name head
     direction 0.0109991 0.997082 -0.0755378  
     length 1.56928  
     axis 0 0 0   XYZ
    dof rx ry rz
    limits (-20.0 45.0)
           (-30.0 30.0)
           (-30.0 30.0)
  end
  begin
     id 17 
     name lclavicle
     direction 0.964749 0.254 -0.068874  
     length 3.26503  
     axis 0 0 0   XYZ
    dof ry rz
    limits (-20.0 10.0)
           (0.0 20.0)
  end
  begin
     id 18 
     name lhumerus
     direction 1 -4.48941e-011 -2.05079e-027   
     length 5.68236   
     axis 180 -30 -90   XYZ
    dof rx ry rz
    limits (-60.0 90.0)
           (-90.0 90.0)
           (-90.0 90.0)
  end
  begin
     id 19
     name lradius
     direction 1 -4.48956e-011 6.2882e-027   
     length 3.17112   
     axis 180 -30 -90   XYZ
    dof rx
    limits (-10.0 170.0)
  end
  begin
     id 20
     name lwrist
     direction 1 -4.49014e-011 1.73219e-026   
     length 1.58556   
     axis -1.04724e-014 90 90   XYZ
    dof ry
    limits (-180.0 0.0)
 end
  begin
     id 21 
     name lhand
     direction 1 -4.49312e-011 3.46438e-026   
     length 0.632691   
     axis -2.21057e-014 90 90   XYZ
    dof rx rz
    limits (-90.0 90.0)
           (-45.0 45.0)
  end
  begin
     id 22 
     name lfingers
     direction 1 -4.48894e-011 6.92876e-026   
     length 0.510091   
     axis -4.42114e-014 90 90   XYZ
    dof rx
    limits (0.0 90.0)
  end
  begin
     id 23
     name lthumb
     direction 0.707107 -6.34705e-011 0.707107   
     length 0.732392   
     axis -90 45 2.85299e-015   XYZ
    dof rx rz
    limits (-45.0 45.0)
           (-45.0 45.0)
  end
  begin
     id 24 
     name rclavicle
     direction -0.954374 0.280496 -0.102435   
     length 3.25419  
     axis 0 0 0   XYZ 
    dof ry rz
    limits (-10.0 20.0)
           (-20.0 0.0)
  end
  begin
     id 25 
     name rhumerus
     direction -1 -4.48994e-011 -1.07204e-017  
     length 5.8712   
     axis 180 30 90   XYZ
    dof rx ry rz
    limits (-90.0 60.0)
           (-90.0 90.0)
           (-90.0 90.0)
  end
  begin
     id 26 
     name rradius
     direction -1 -4.48972e-011 5.89292e-027   
     length 3.37589   
     axis 180 30 90   XYZ
    dof rx
    limits (-10.0 170.0)
  end
  begin
     id 27 
     name rwrist
     direction -1 -4.48942e-011 1.73219e-026   
     length 1.68794   
     axis -1.04724e-014 -90 -90   XYZ
    dof ry
    limits (-180.0 0.0)
  end
  begin
     id 28
     name rhand
     direction -1 -4.48514e-011 3.46438e-026   
     length 0.603257   
     axis -2.21057e-014 -90 -90   XYZ
    dof rx rz
    limits (-90.0 90.0)
           (-45.0 45.0)
  end
  begin
     id 29
     name rfingers
     direction -1 -4.50028e-011 6.92876e-026   
     length 0.486362   
     axis -4.42114e-014 -90 -90   XYZ
    dof rx
    limits (0.0 90.0)
  end
  begin
     id 30
     name rthumb
     direction -0.707107 -6.34926e-011 0.707107   
     length 0.698321   
     axis -90 -45 -2.85299e-015   XYZ
    dof rx rz
    limits (-45.0 45.0)
           (-45.0 45.0)
  end
:hierarchy
  begin
    root lhipjoint rhipjoint lowerback
    lhipjoint lfemur
    lfemur ltibia
    ltibia lfoot
    lfoot ltoes
    rhipjoint rfemur
    rfemur rtibia
    rtibia rfoot
    rfoot rtoes
    lowerback upperback
    upperback thorax
    thorax lowerneck lclavicle rclavicle
    lowerneck upperneck
    upperneck head
    lclavicle lhumerus
    lhumerus lradius
    lradius lwrist
    lwrist lhand lthumb
    lhand lfingers
    rclavicle rhumerus
    rhumerus rradius
    rradius rwrist
    rwrist rhand rthumb
    rhand rfingers
  end

#!OML:ASF I:\Segmentation\Patient Classification 1\Patient 1\Session 1\Patient1.ASF
:FULLY-SPECIFIED
:DEGREES
1948
root 20.51 15.7114 -0.608221 -534.683 -97.6704 162.241
lowerback 11.6439 4.3062 0.911366
upperback 13.2469 5.08843 -2.27569
thorax 7.93185 2.42327 -3.19564
lowerneck 0.287482 0.0561457 2.51847
upperneck -2.33869 0.0558503 -1.89628
head -0.763925 0.0214917 -1.00202
rclavicle -4.41302e-014 3.26007e-014
rhumerus 60.771 -8.58908 -27.3428
rradius 110.006
rwrist -27.475
rhand -14.7424 35.491
rfingers 7.12502
rthumb 11.4132 5.82159
lclavicle -4.41302e-014 3.26007e-014
lhumerus -3.6314 -24.571 83.6642
lradius 46.1681
lwrist 24.5767
lhand -17.889 39.2877
lfingers 7.12502
lthumb 8.37743 69.1015
rfemur -35.956 -11.4611 18.5857
rtibia 60.9589
rfoot -5.86888 4.18798
rtoes 47.6738
lfemur -40.0345 8.07535 -17.3518
ltibia 64.0057
lfoot -11.7426 3.24864
ltoes -0.761392
1949
root 20.5098 15.7092 -0.608628 -534.763 -97.6395 162.313
lowerback 11.6468 4.29979 0.864862
upperback 13.2569 5.07514 -2.25945
thorax 7.93386 2.41105 -3.1522
lowerneck 0.235727 0.0163838 2.47191
upperneck -2.27859 0.00201802 -1.88014
head -0.737669 -0.00523357 -0.988221
rclavicle -4.01545e-014 1.90833e-014
rhumerus 60.7519 -8.63469 -27.322
rradius 109.997
rwrist -27.4589
rhand -14.7572 35.4944
rfingers 7.12502
rthumb 11.3989 5.82425
lclavicle -4.01545e-014 1.90833e-014
lhumerus -3.64551 -24.5455 83.6704
lradius 46.1958
lwrist 24.5899
lhand -17.8713 39.3427
lfingers 7.12502
lthumb 8.39452 69.1559
rfemur -35.9596 -11.3972 18.5678
rtibia 60.9815
rfoot -5.88358 4.21885
rtoes 47.6737
lfemur -40.0333 8.07147 -17.3579
ltibia 64.0306
lfoot -11.7869 3.25078
ltoes -0.674191
1950
root 20.5096 15.7078 -0.608958 -534.85 -97.6164 162.389
lowerback 11.6514 4.28946 0.821375
upperback 13.2657 5.05689 -2.24218
thorax 7.93355 2.39659 -3.10927
lowerneck 0.188824 -0.0219758 2.42589
upperneck -2.22127 -0.049802 -1.86437
head -0.713049 -0.0309501 -0.974721
rclavicle -2.3059e-014 3.97569e-014
rhumerus 60.7274 -8.67798 -27.2979
rradius 109.984
rwrist -27.4449
rhand -14.7631 35.5107
rfingers 7.12502
rthumb 11.3932 5.84023
lclavicle -2.3059e-014 3.97569e-014
lhumerus -3.65998 -24.5134 83.6782
lradius 46.216
lwrist 24.5981
lhand -17.8378 39.4017
lfingers 7.12502
lthumb 8.42691 69.2136
rfemur -35.9566 -11.3581 18.551
rtibia 60.9994
rfoot -5.88252 4.24278
rtoes 47.6824
lfemur -40.0245 8.06413 -17.3649
ltibia 64.0486
lfoot -11.8316 3.24806
ltoes -0.493429
1951
root 20.5092 15.7065 -0.609142 -534.979 -97.6018 162.507
lowerback 11.6581 4.27514 0.776189
upperback 13.2711 5.03353 -2.2255
thorax 7.92754 2.37954 -3.06606
lowerneck 0.159942 -0.0517599 2.39258
upperneck -2.17548 -0.0899006 -1.85829
head -0.694829 -0.0507807 -0.966634
rclavicle 3.29983e-014 -1.27222e-014
rhumerus 60.6997 -8.71001 -27.2776
rradius 109.961
rwrist -27.4503
rhand -14.7273 35.5465
rfingers 7.12502
rthumb 11.4277 5.87794
lclavicle 3.29983e-014 -1.27222e-014
lhumerus -3.67652 -24.4717 83.6894
lradius 46.2164
lwrist 24.5903
lhand -17.8002 39.4514
lfingers 7.12502
lthumb 8.46317 69.2618
rfemur -35.9518 -11.3367 18.5296
rtibia 61.0156
rfoot -5.87497 4.25762
rtoes 47.6975
lfemur -40.0098 8.04895 -17.3792
ltibia 64.0566
lfoot -11.8646 3.24673
ltoes -0.248293
1952
root 20.5087 15.7051 -0.609096 -535.143 -97.5894 162.659
lowerback 11.6697 4.2577 0.730267
upperback 13.2717 5.00622 -2.2112
thorax 7.91345 2.36064 -3.02524
lowerneck 0.146644 -0.0699329 2.37707
upperneck -2.13997 -0.114266 -1.86274
head -0.682147 -0.0627557 -0.965068
rclavicle 6.44062e-014 -3.49861e-014
rhumerus 60.6742 -8.72627 -27.27
rradius 109.934
rwrist -27.4743
rhand -14.6258 35.6196
rfingers 7.12502
rthumb 11.5256 5.95647
lclavicle 6.44062e-014 -3.49861e-014
lhumerus -3.69774 -24.4172 83.7037
lradius 46.194
lwrist 24.5597
lhand -17.7665 39.4737
lfingers 7.12502
lthumb 8.49568 69.2828
rfemur -35.9483 -11.3201 18.5033
rtibia 61.0332
rfoot -5.86897 4.26686
rtoes 47.7205
lfemur -39.9905 8.02842 -17.4007
ltibia 64.0557
lfoot -11.8804 3.25383
ltoes -0.0391422
1953
root 20.5084 15.704 -0.60879 -535.307 -97.5744 162.81
lowerback 11.6872 4.23869 0.692138
upperback 13.2688 4.97753 -2.20289
thorax 7.89357 2.34209 -2.99549
lowerneck 0.141145 -0.0806697 2.38562
upperneck -2.11116 -0.128554 -1.87626
head -0.67273 -0.0697882 -0.970551
rclavicle -6.36111e-015 1.43125e-014
rhumerus 60.6497 -8.73157 -27.2798
rradius 109.909
rwrist -27.5042
rhand -14.4718 35.7142
rfingers 7.12502
rthumb 11.6741 6.05948
lclavicle -6.36111e-015 1.43125e-014
lhumerus -3.72499 -24.356 83.7155
lradius 46.1603
lwrist 24.5099
lhand -17.742 39.4601
lfingers 7.12502
lthumb 8.51936 69.2683
rfemur -35.9423 -11.3003 18.4758
rtibia 61.0509
rfoot -5.86711 4.27699
rtoes 47.7459
lfemur -39.9654 8.0082 -17.4234
ltibia 64.0487
lfoot -11.8804 3.26808
ltoes 0.0441493
1954
root 20.5082 15.7036 -0.608301 -535.469 -97.5544 162.958
lowerback 11.7021 4.22047 0.663084
upperback 13.2669 4.95067 -2.20253
thorax 7.87823 2.3257 -2.97908
lowerneck 0.135297 -0.0889547 2.42385
upperneck -2.08832 -0.139678 -1.904
head -0.665188 -0.075379 -0.985583
rclavicle 6.36111e-015 -5.56597e-015
rhumerus 60.6218 -8.73831 -27.3009
rradius 109.898
rwrist -27.5295
rhand -14.3197 35.7799
rfingers 7.12502
rthumb 11.8208 6.13354
lclavicle 6.36111e-015 -5.56597e-015
lhumerus -3.75251 -24.3019 83.7183
lradius 46.1317
lwrist 24.4599
lhand -17.7346 39.4209
lfingers 7.12502
lthumb 8.52643 69.2287
rfemur -35.931 -11.2732 18.4465
rtibia 61.0646
rfoot -5.86976 4.29115
rtoes 47.7536
lfemur -39.9354 7.99368 -17.4459
ltibia 64.0382
lfoot -11.875 3.28326
ltoes 0.0162872
1955
root 20.5081 15.7039 -0.607708 -535.623 -97.5299 163.1
lowerback 11.7047 4.20441 0.638088
upperback 13.2718 4.92697 -2.20536
thorax 7.87849 2.31137 -2.96746
lowerneck 0.1205 -0.0960994 2.48076
upperneck -2.07272 -0.149713 -1.94526
head -0.658479 -0.0805452 -1.00807
rclavicle -6.24184e-014 6.83819e-014
rhumerus 60.5889 -8.75843 -27.3196
rradius 109.904
rwrist -27.5483
rhand -14.2348 35.781
rfingers 7.12502
rthumb 11.9027 6.13932
lclavicle -6.24184e-014 6.83819e-014
lhumerus -3.77066 -24.2641 83.7109
lradius 46.1207
lwrist 24.4328
lhand -17.7533 39.3688
lfingers 7.12502
lthumb 8.50839 69.1774
rfemur -35.9164 -11.2383 18.4169
rtibia 61.0704
rfoot -5.87509 4.30735
rtoes 47.7316
lfemur -39.905 7.9892 -17.4675
ltibia 64.0265
lfoot -11.8778 3.29657
ltoes -0.0623576
1956
root 20.5079 15.7046 -0.606976 -535.736 -97.5023 163.203
lowerback 11.6949 4.1899 0.620251
upperback 13.2839 4.90567 -2.20768
thorax 7.89477 2.29879 -2.9584
lowerneck 0.0937075 -0.103016 2.53802
upperneck -2.05928 -0.159742 -1.98355
head -0.65042 -0.0858137 -1.02969
rclavicle 8.26944e-014 -3.73715e-014
rhumerus 60.5454 -8.79465 -27.3282
rradius 109.921
rwrist -27.5596
rhand -14.2492 35.7225
rfingers 7.12502
rthumb 11.8888 6.08
lclavicle 8.26944e-014 -3.73715e-014
lhumerus -3.77771 -24.244 83.6937
lradius 46.1283
lwrist 24.4364
lhand -17.797 39.3094
lfingers 7.12502
lthumb 8.46622 69.1197
rfemur -35.8998 -11.1972 18.3925
rtibia 61.0677
rfoot -5.88088 4.32153
rtoes 47.6846
lfemur -39.8765 7.99446 -17.4837
ltibia 64.0151
lfoot -11.8962 3.30798
ltoes -0.14673
1957
root 20.5075 15.7054 -0.606006 -535.784 -97.4724 163.239
lowerback 11.6821 4.17604 0.617676
upperback 13.2987 4.88613 -2.21076
thorax 7.91746 2.28849 -2.95839
lowerneck 0.0599071 -0.110329 2.58143
upperneck -2.03771 -0.169994 -1.99488
head -0.638536 -0.0912935 -1.04047
rclavicle -1.51076e-014 2.62396e-014
rhumerus 60.4824 -8.84128 -27.3266
rradius 109.941
rwrist -27.5602
rhand -14.3531 35.6344
rfingers 7.12502
rthumb 11.7886 5.9862
lclavicle -1.51076e-014 2.62396e-014
lhumerus -3.78185 -24.2372 83.6683
lradius 46.1412
lwrist 24.4601
lhand -17.8514 39.2503
lfingers 7.12502
lthumb 8.41375 69.0627
rfemur -35.8787 -11.1518 18.3764
rtibia 61.0582
rfoot -5.88714 4.32959
rtoes 47.6219
lfemur -39.8463 8.00784 -17.4909
ltibia 64.0048
lfoot -11.9281 3.3175
ltoes -0.21314
1958
root 20.5071 15.7064 -0.604776 -535.765 -97.4407 163.201
lowerback 11.676 4.16345 0.633367
upperback 13.3119 4.86934 -2.21509
thorax 7.937 2.28127 -2.97037
lowerneck 0.0282242 -0.117925 2.60316
upperneck -2.00799 -0.179883 -1.96534
head -0.624253 -0.0966637 -1.03471
rclavicle 2.82274e-014 -5.56597e-015
rhumerus 60.398 -8.89413 -27.3156
rradius 109.965
rwrist -27.5572
rhand -14.5022 35.5511
rfingers 7.12502
rthumb 11.6448 5.89469
lclavicle 2.82274e-014 -5.56597e-015
lhumerus -3.79051 -24.236 83.6426
lradius 46.1412
lwrist 24.4848
lhand -17.8988 39.1948
lfingers 7.12502
lthumb 8.36805 69.009
rfemur -35.8492 -11.1051 18.3689
rtibia 61.0444
rfoot -5.89574 4.33233
rtoes 47.5619
lfemur -39.8086 8.02912 -17.4876
ltibia 63.9961
lfoot -11.9644 3.3242
ltoes -0.264207
1959
root 20.5067 15.7075 -0.603444 -535.68 -97.4093 163.091
lowerback 11.6789 4.15334 0.666574
upperback 13.3214 4.857 -2.22125
thorax 7.94941 2.27801 -2.99483
lowerneck 0.00948788 -0.126747 2.61112
upperneck -1.98529 -0.190675 -1.90211
head -0.61415 -0.102558 -1.01608
rclavicle -1.98785e-015 -7.95139e-016
rhumerus 60.2964 -8.95227 -27.302
rradius 109.989
rwrist -27.5621
rhand -14.6306 35.4874
rfingers 7.12502
rthumb 11.521 5.82399
lclavicle -1.98785e-015 -7.95139e-016
lhumerus -3.80557 -24.237 83.6224
lradius 46.1223
lwrist 24.4967
lhand -17.9189 39.1381
lfingers 7.12502
lthumb 8.3486 68.9531
rfemur -35.8128 -11.0596 18.3705
rtibia 61.0288
rfoot -5.9086 4.33777
rtoes 47.522
lfemur -39.7658 8.05627 -17.4732
ltibia 63.9904
lfoot -11.9935 3.32645
ltoes -0.31107
1960
root 20.5063 15.7084 -0.602299 -535.536 -97.3815 162.919
lowerback 11.6859 4.14534 0.711279
upperback 13.3273 4.84838 -2.22755
thorax 7.95698 2.27775 -3.02624
lowerneck 0.0106493 -0.136783 2.61991
upperneck -1.98866 -0.20273 -1.8291
head -0.615402 -0.109159 -0.994666
rclavicle -1.35174e-014 3.18055e-014
rhumerus 60.1876 -9.01385 -27.2948
rradius 110.009
rwrist -27.5783
rhand -14.6863 35.426
rfingers 7.12502
rthumb 11.4673 5.75962
lclavicle -1.35174e-014 3.18055e-014
lhumerus -3.82418 -24.2415 83.6088
lradius 46.0927
lwrist 24.4945
lhand -17.8979 39.0799
lfingers 7.12502
lthumb 8.36889 68.8941
rfemur -35.7773 -11.0177 18.3819
rtibia 61.0136
rfoot -5.92411 4.35076
rtoes 47.5032
lfemur -39.7273 8.08717 -17.4494
ltibia 63.9896
lfoot -12.006 3.32338
ltoes -0.36516
1961
root 20.506 15.7087 -0.601548 -535.34 -97.3593 162.699
lowerback 11.6903 4.13669 0.751474
upperback 13.3335 4.83842 -2.22427
thorax 7.96465 2.27593 -3.04474
lowerneck 0.0283413 -0.145914 2.62948
upperneck -2.02425 -0.213807 -1.77317
head -0.629394 -0.115243 -0.978871
rclavicle 2.50469e-014 -1.59028e-014
rhumerus 60.0906 -9.07383 -27.2929
rradius 110.023
rwrist -27.6033
rhand -14.6673 35.3619
rfingers 7.12502
rthumb 11.4856 5.69656
lclavicle 2.50469e-014 -1.59028e-014
lhumerus -3.84131 -24.2423 83.6085
lradius 46.0632
lwrist 24.487
lhand -17.8494 39.0259
lfingers 7.12502
lthumb 8.41572 68.8382
rfemur -35.7487 -10.9826 18.4041
rtibia 61.001
rfoot -5.93582 4.36741
rtoes 47.5051
lfemur -39.6996 8.12119 -17.4191
ltibia 63.9947
lfoot -12.0018 3.31585
ltoes -0.425468
1962
root 20.5058 15.7084 -0.601154 -535.113 -97.3415 162.454
lowerback 11.6902 4.12273 0.771373
upperback 13.3389 4.81974 -2.20318
thorax 7.96927 2.26698 -3.03242
lowerneck 0.06026 -0.151755 2.62462
upperneck -2.08293 -0.220896 -1.74266
head -0.652849 -0.119113 -0.968694
rclavicle 6.2816e-014 -3.26007e-014
rhumerus 60.0234 -9.11802 -27.2894
rradius 110.03
rwrist -27.62
rhand -14.6298 35.3315
rfingers 7.12502
rthumb 11.5218 5.66815
lclavicle 6.2816e-014 -3.26007e-014
lhumerus -3.86408 -24.2259 83.6305
lradius 46.0425
lwrist 24.4851
lhand -17.803 38.9796
lfingers 7.12502
lthumb 8.46049 68.7902
rfemur -35.7315 -10.9553 18.4351
rtibia 60.9929
rfoot -5.93712 4.3806
rtoes 47.532
lfemur -39.686 8.15574 -17.3864
ltibia 64.0052
lfoot -11.9895 3.30638
ltoes -0.473941
